<svg viewBox="0 0 1013 532" xmlns="http://www.w3.org/2000/svg"><g fill="#8D0081"><path d="M165.2 56.18C155.544 23.993 124.528 0 85.32 0 40.843 0 8.656 28.968 8.656 60.86c0 35.99 28.383 49.45 52.96 58.814 29.262 11.12 54.425 17.264 54.425 31.894 0 9.363-9.654 16.97-25.454 16.97-21.067 0-37.453-14.337-42.135-30.43L.466 150.983c13.46 38.33 43.89 62.032 86.61 62.032 47.695 0 79.88-26.627 79.88-64.08 0-39.21-31.893-52.376-62.323-63.495-24.87-9.07-45.353-14.923-45.353-26.92 0-9.948 9.654-16.093 24.284-16.093s29.26 8.486 34.235 26.627l47.4-12.874zm179.072 152.738h54.717L285.164 4.096l-113.82 204.822h172.93zm240.227 0l-47.11-75.784c23.99-11.12 37.45-32.186 37.45-59.983 0-42.132-31.015-69.052-82.513-69.052h-76.37V208.92h49.157v-66.714H489.4l40.673 66.713H584.5zM465.114 50.035h33.942c17.555 0 24.578 11.997 24.578 23.116 0 11.12-7.023 23.118-24.58 23.118h-33.94v-46.23zm301.088 158.883h54.717L707.1 4.096 593.276 208.918h172.927zM963.713 4.096v79.296H887.05V4.096h-49.157v204.822h49.157V129.33h76.662v79.588h49.157V4.096h-49.16zM158.615 327.178v79.296H81.954v-79.296H32.797V532h49.157v-79.588h76.662V532h49.157V327.178h-49.157zM397.672 532h54.717L338.563 327.178 224.744 532h172.93zm174.1-120.845L469.36 327.178V532h49.157l-2.157-102.41 55.41 51.79 53.254-51.79V532h49.157V327.178l-102.41 83.977zm148.055-83.977V532h89.537c58.52 0 105.922-40.087 105.922-101.533 0-61.447-47.402-103.29-105.922-103.29h-89.537zm49.158 45.94h40.38c29.26 0 54.715 22.237 54.715 57.35 0 35.11-25.456 55.593-54.716 55.593l-40.38-112.94zM997.507 532V327.178H948.35V532h49.157z"/><path d="M165.2 56.18C155.544 23.993 124.528 0 85.32 0 40.843 0 8.656 28.968 8.656 60.86c0 35.99 28.383 49.45 52.96 58.814 29.262 11.12 54.425 17.264 54.425 31.894 0 9.363-9.654 16.97-25.454 16.97-21.067 0-37.453-14.337-42.135-30.43L.466 150.983c13.46 38.33 43.89 62.032 86.61 62.032 47.695 0 79.88-26.627 79.88-64.08 0-39.21-31.893-52.376-62.323-63.495-24.87-9.07-45.353-14.923-45.353-26.92 0-9.948 9.654-16.093 24.284-16.093s29.26 8.486 34.235 26.627l47.4-12.874zm179.072 152.738h54.717L285.164 4.096l-113.82 204.822h172.93zm240.227 0l-47.11-75.784c23.99-11.12 37.45-32.186 37.45-59.983 0-42.132-31.015-69.052-82.513-69.052h-76.37V208.92h49.157v-66.714H489.4l40.673 66.713H584.5zM465.114 50.035h33.942c17.555 0 24.578 11.997 24.578 23.116 0 11.12-7.023 23.118-24.58 23.118h-33.94v-46.23zm301.088 158.883h54.717L707.1 4.096 593.276 208.918h172.927zM963.713 4.096v79.296H887.05V4.096h-49.157v204.822h49.157V129.33h76.662v79.588h49.157V4.096h-49.16zM158.615 327.178v79.296H81.954v-79.296H32.797V532h49.157v-79.588h76.662V532h49.157V327.178h-49.157zM397.672 532h54.717L338.563 327.178 224.744 532h172.93zm174.1-120.845L469.36 327.178V532h49.157l-2.157-102.41 55.41 51.79 53.254-51.79V532h49.157V327.178l-102.41 83.977zm148.055-83.977V532h89.537c58.52 0 105.922-40.087 105.922-101.533 0-61.447-47.402-103.29-105.922-103.29h-89.537zm49.158 45.94h40.38c29.26 0 54.715 22.237 54.715 57.35 0 35.11-25.456 55.593-54.716 55.593l-40.38-112.94zM997.507 532V327.178H948.35V532h49.157z"/></g></svg>