<svg viewBox="0 0 1013 532" xmlns="http://www.w3.org/2000/svg"><g fill="#8D0081"><path d="M165.2 56.18C155.544 23.993 124.528 0 85.32 0 40.843 0 8.656 28.968 8.656 60.86c0 35.99 28.383 49.45 52.96 58.814 29.262 11.12 54.425 17.264 54.425 31.894 0 9.363-9.65 16.97-25.45 16.97-21.064 0-37.45-14.337-42.132-30.43L.468 150.983c13.46 38.33 43.89 62.032 86.61 62.032 47.693 0 79.88-26.627 79.88-64.08 0-39.21-31.895-52.376-62.325-63.495-24.87-9.07-45.353-14.923-45.353-26.92 0-9.948 9.654-16.093 24.284-16.093s29.26 8.486 34.235 26.627l47.4-12.874zm179.072 152.738h54.717L285.16 4.096 171.34 208.918h172.93zm240.227 0l-47.11-75.784c23.99-11.12 37.45-32.186 37.45-59.983 0-42.13-31.02-69.05-82.52-69.05h-76.37v204.82h49.157v-66.71h24.29l40.672 66.716h54.43zM465.11 50.035h33.942c17.555 0 24.578 11.997 24.578 23.116 0 11.12-7.023 23.12-24.58 23.12h-33.94V50.04zM766.2 208.918h54.718L707.1 4.096 593.276 208.918h172.927zM963.713 4.096v79.296H887.05V4.096h-49.157v204.822h49.157V129.33h76.662v79.588h49.157V4.096h-49.16zM158.616 327.178v79.296h-76.66v-79.296h-49.16V532h49.157v-79.588h76.662V532h49.157V327.178h-49.157zM397.672 532h54.717L338.56 327.178 224.742 532h172.93zm174.1-120.845L469.36 327.178V532h49.157l-2.157-102.41 55.41 51.79 53.254-51.79V532h49.157V327.178l-102.41 83.977zm148.055-83.977V532h89.537c58.52 0 105.922-40.087 105.922-101.533 0-61.447-47.402-103.29-105.922-103.29h-89.537zm49.158 45.94h40.38c29.26 0 54.715 22.237 54.715 57.35 0 35.11-25.456 55.593-54.716 55.593l-40.38-112.94zM997.507 532V327.178H948.35V532h49.157z"/><path d="M165.2 56.18C155.544 23.993 124.528 0 85.32 0 40.843 0 8.656 28.968 8.656 60.86c0 35.99 28.383 49.45 52.96 58.814 29.262 11.12 54.425 17.264 54.425 31.894 0 9.363-9.65 16.97-25.45 16.97-21.064 0-37.45-14.337-42.132-30.43L.468 150.983c13.46 38.33 43.89 62.032 86.61 62.032 47.693 0 79.88-26.627 79.88-64.08 0-39.21-31.895-52.376-62.325-63.495-24.87-9.07-45.353-14.923-45.353-26.92 0-9.948 9.654-16.093 24.284-16.093s29.26 8.486 34.235 26.627l47.4-12.874zm179.072 152.738h54.717L285.16 4.096 171.34 208.918h172.93zm240.227 0l-47.11-75.784c23.99-11.12 37.45-32.186 37.45-59.983 0-42.13-31.02-69.05-82.52-69.05h-76.37v204.82h49.157v-66.71h24.29l40.672 66.716h54.43zM465.11 50.035h33.942c17.555 0 24.578 11.997 24.578 23.116 0 11.12-7.023 23.12-24.58 23.12h-33.94V50.04zM766.2 208.918h54.718L707.1 4.096 593.276 208.918h172.927zM963.713 4.096v79.296H887.05V4.096h-49.157v204.822h49.157V129.33h76.662v79.588h49.157V4.096h-49.16zM158.616 327.178v79.296h-76.66v-79.296h-49.16V532h49.157v-79.588h76.662V532h49.157V327.178h-49.157zM397.672 532h54.717L338.56 327.178 224.742 532h172.93zm174.1-120.845L469.36 327.178V532h49.157l-2.157-102.41 55.41 51.79 53.254-51.79V532h49.157V327.178l-102.41 83.977zm148.055-83.977V532h89.537c58.52 0 105.922-40.087 105.922-101.533 0-61.447-47.402-103.29-105.922-103.29h-89.537zm49.158 45.94h40.38c29.26 0 54.715 22.237 54.715 57.35 0 35.11-25.456 55.593-54.716 55.593l-40.38-112.94zM997.507 532V327.178H948.35V532h49.157z"/></g></svg>